<svg width="16" height="16" viewBox="0 0 16 16" fill="none" xmlns="http://www.w3.org/2000/svg">
<g clip-path="url(#clip0_28_655)">
<path d="M15.9872 8.14946C15.9872 7.49394 15.9327 7.01559 15.815 6.51953H8.15625V9.47819H12.6517C12.5611 10.2135 12.0717 11.3208 10.9841 12.0648L10.9688 12.1639L13.3904 13.9973L13.5581 14.0137C15.0989 12.6229 15.9872 10.5766 15.9872 8.14946Z" fill="#4285F4"/>
<path d="M8.15821 15.9446C10.3606 15.9446 12.2096 15.2359 13.5601 14.0134L10.986 12.0646C10.2972 12.534 9.3727 12.8618 8.15821 12.8618C6.0011 12.8618 4.17028 11.4711 3.51764 9.54883L3.42198 9.55677L0.904022 11.4613L0.871094 11.5508C2.21249 14.1551 4.96781 15.9446 8.15821 15.9446Z" fill="#34A853"/>
<path d="M3.51662 9.54887C3.34442 9.05281 3.24476 8.52127 3.24476 7.97208C3.24476 7.42283 3.34442 6.89135 3.50756 6.39529L3.503 6.28964L0.953496 4.35449L0.87008 4.39327C0.317228 5.474 0 6.68762 0 7.97208C0 9.25654 0.317228 10.4701 0.87008 11.5508L3.51662 9.54887Z" fill="#FBBC05"/>
<path d="M8.15821 3.08269C9.68993 3.08269 10.7232 3.72934 11.3123 4.26974L13.6144 2.07286C12.2006 0.788397 10.3606 0 8.15821 0C4.96781 0 2.21249 1.78937 0.871094 4.39371L3.50858 6.39573C4.17028 4.47347 6.0011 3.08269 8.15821 3.08269Z" fill="#EB4335"/>
</g>
<defs>
<clipPath id="clip0_28_655">
<rect width="15.9957" height="16" rx="7.99787" fill="white"/>
</clipPath>
</defs>
</svg>
