<svg width="37" height="37" viewBox="0 0 37 37" fill="none" xmlns="http://www.w3.org/2000/svg">
<mask id="mask0_30_868" style="mask-type:alpha" maskUnits="userSpaceOnUse" x="0" y="0" width="37" height="37">
<rect width="37" height="37" fill="#D9D9D9"/>
</mask>
<g mask="url(#mask0_30_868)">
<path d="M13.5604 23.3994L27.2813 19.688C27.6667 19.5827 27.9557 19.3392 28.1484 18.9575C28.3411 18.5758 28.3861 18.1876 28.2833 17.7928C28.1806 17.3979 27.9557 17.1018 27.6089 16.9044C27.262 16.7069 26.8958 16.6609 26.5104 16.7662L22.7333 17.7928L16.5667 11.8702L14.4083 12.423L18.1083 19.0562L14.4083 20.0038L12.4813 18.5035L11.0167 18.8983L13.5604 23.3994ZM30.75 30.2696H6.08333C5.23542 30.2696 4.50955 29.9603 3.90573 29.3418C3.30191 28.7232 3 27.9796 3 27.1109V20.7935C3.84792 20.7935 4.57378 20.4842 5.1776 19.8656C5.78142 19.2471 6.08333 18.5035 6.08333 17.6348C6.08333 16.7662 5.78142 16.0226 5.1776 15.404C4.57378 14.7854 3.84792 14.4761 3 14.4761V8.1587C3 7.29006 3.30191 6.54645 3.90573 5.92787C4.50955 5.30929 5.23542 5 6.08333 5H30.75C31.5979 5 32.3238 5.30929 32.9276 5.92787C33.5314 6.54645 33.8333 7.29006 33.8333 8.1587V27.1109C33.8333 27.9796 33.5314 28.7232 32.9276 29.3418C32.3238 29.9603 31.5979 30.2696 30.75 30.2696ZM30.75 27.1109V8.1587H6.08333V12.1861C7.03403 12.7651 7.78559 13.5351 8.33802 14.4959C8.89045 15.4566 9.16667 16.5029 9.16667 17.6348C9.16667 18.7667 8.89045 19.813 8.33802 20.7738C7.78559 21.7345 7.03403 22.5045 6.08333 23.0836V27.1109H30.75Z" fill="#F9F7F7"/>
</g>
</svg>
