<svg width="25" height="25" viewBox="0 0 25 25" fill="none" xmlns="http://www.w3.org/2000/svg">
<path d="M5.50781 13.6149H16.6778L11.7978 18.4949C11.4078 18.8849 11.4078 19.5249 11.7978 19.9149C12.1878 20.3049 12.8178 20.3049 13.2078 19.9149L19.7978 13.3249C20.1878 12.9349 20.1878 12.3049 19.7978 11.9149L13.2178 5.31495C13.031 5.12769 12.7773 5.02246 12.5128 5.02246C12.2483 5.02246 11.9946 5.12769 11.8078 5.31495C11.4178 5.70495 11.4178 6.33495 11.8078 6.72495L16.6778 11.6149H5.50781C4.95781 11.6149 4.50781 12.0649 4.50781 12.6149C4.50781 13.1649 4.95781 13.6149 5.50781 13.6149Z" fill="#37474F"/>
<mask id="mask0_174_1876" style="mask-type:luminance" maskUnits="userSpaceOnUse" x="4" y="5" width="17" height="16">
<path d="M5.50781 13.6149H16.6778L11.7978 18.4949C11.4078 18.8849 11.4078 19.5249 11.7978 19.9149C12.1878 20.3049 12.8178 20.3049 13.2078 19.9149L19.7978 13.3249C20.1878 12.9349 20.1878 12.3049 19.7978 11.9149L13.2178 5.31495C13.031 5.12769 12.7773 5.02246 12.5128 5.02246C12.2483 5.02246 11.9946 5.12769 11.8078 5.31495C11.4178 5.70495 11.4178 6.33495 11.8078 6.72495L16.6778 11.6149H5.50781C4.95781 11.6149 4.50781 12.0649 4.50781 12.6149C4.50781 13.1649 4.95781 13.6149 5.50781 13.6149Z" fill="white"/>
</mask>
<g mask="url(#mask0_174_1876)">
</g>
</svg>
