<svg width="13" height="13" viewBox="0 0 13 13" fill="none" xmlns="http://www.w3.org/2000/svg">
<path d="M0.875 12.125V3.375H3.375V0.875H9.625V5.875H12.125V12.125H7.125V9.625H5.875V12.125H0.875ZM2.125 10.875H3.375V9.625H2.125V10.875ZM2.125 8.375H3.375V7.125H2.125V8.375ZM2.125 5.875H3.375V4.625H2.125V5.875ZM4.625 8.375H5.875V7.125H4.625V8.375ZM4.625 5.875H5.875V4.625H4.625V5.875ZM4.625 3.375H5.875V2.125H4.625V3.375ZM7.125 8.375H8.375V7.125H7.125V8.375ZM7.125 5.875H8.375V4.625H7.125V5.875ZM7.125 3.375H8.375V2.125H7.125V3.375ZM9.625 10.875H10.875V9.625H9.625V10.875ZM9.625 8.375H10.875V7.125H9.625V8.375Z" fill="#F9F7F7"/>
</svg>
