<svg width="15" height="15" viewBox="0 0 15 15" fill="none" xmlns="http://www.w3.org/2000/svg">
<g id="apartment">
<mask id="mask0_69_4181" style="mask-type:alpha" maskUnits="userSpaceOnUse" x="0" y="0" width="15" height="15">
<rect id="Bounding box" width="15" height="15" fill="#D9D9D9"/>
</mask>
<g mask="url(#mask0_69_4181)">
<path id="apartment_2" d="M1.875 13.125V4.375H4.375V1.875H10.625V6.875H13.125V13.125H8.125V10.625H6.875V13.125H1.875ZM3.125 11.875H4.375V10.625H3.125V11.875ZM3.125 9.375H4.375V8.125H3.125V9.375ZM3.125 6.875H4.375V5.625H3.125V6.875ZM5.625 9.375H6.875V8.125H5.625V9.375ZM5.625 6.875H6.875V5.625H5.625V6.875ZM5.625 4.375H6.875V3.125H5.625V4.375ZM8.125 9.375H9.375V8.125H8.125V9.375ZM8.125 6.875H9.375V5.625H8.125V6.875ZM8.125 4.375H9.375V3.125H8.125V4.375ZM10.625 11.875H11.875V10.625H10.625V11.875ZM10.625 9.375H11.875V8.125H10.625V9.375Z" fill="#5D6D79"/>
</g>
</g>
</svg>
