<svg width="13" height="13" viewBox="0 0 13 13" fill="none" xmlns="http://www.w3.org/2000/svg">
<path d="M9.3125 6.5C9.3125 8.0533 8.0533 9.3125 6.5 9.3125C4.9467 9.3125 3.6875 8.0533 3.6875 6.5C3.6875 4.9467 4.9467 3.6875 6.5 3.6875C8.0533 3.6875 9.3125 4.9467 9.3125 6.5ZM9.3125 6.5C9.3125 7.53553 9.9421 8.375 10.7188 8.375C11.4954 8.375 12.125 7.53554 12.125 6.50001C12.125 5.06044 11.5758 3.62088 10.4775 2.52252C8.28078 0.325825 4.71922 0.325825 2.52252 2.52252C0.325825 4.71922 0.325825 8.28078 2.52252 10.4775C4.71922 12.6742 8.28078 12.6742 10.4775 10.4775M9.3125 6.5V4.15625" stroke="#737373" stroke-opacity="0.55" stroke-width="1.5" stroke-linecap="round" stroke-linejoin="round"/>
</svg>
