<svg width="20" height="20" viewBox="0 0 20 20" fill="none" xmlns="http://www.w3.org/2000/svg">
<path d="M13.3346 1.66699H6.66797C3.91047 1.66699 1.66797 3.90949 1.66797 6.66699V17.5003C1.66797 17.7213 1.75577 17.9333 1.91205 18.0896C2.06833 18.2459 2.28029 18.3337 2.5013 18.3337H13.3346C16.0921 18.3337 18.3346 16.0912 18.3346 13.3337V6.66699C18.3346 3.90949 16.0921 1.66699 13.3346 1.66699ZM16.668 13.3337C16.668 15.172 15.173 16.667 13.3346 16.667H3.33464V6.66699C3.33464 4.82866 4.82964 3.33366 6.66797 3.33366H13.3346C15.173 3.33366 16.668 4.82866 16.668 6.66699V13.3337Z" fill="black" fill-opacity="0.7"/>
<path d="M10.832 5.83301H9.16536V9.16634H5.83203V10.833H9.16536V14.1663H10.832V10.833H14.1654V9.16634H10.832V5.83301Z" fill="black" fill-opacity="0.7"/>
</svg>
