<svg width="100" height="100" viewBox="0 0 100 100" fill="none" xmlns="http://www.w3.org/2000/svg">
<g id="Icon Email" clip-path="url(#clip0_24_711)">
<path id="Vector" d="M88.888 16.667H11.1102C9.63682 16.667 8.22374 17.2523 7.18187 18.2942C6.14 19.336 5.55469 20.7491 5.55469 22.2225V77.7781C5.55469 79.2515 6.14 80.6646 7.18187 81.7065C8.22374 82.7483 9.63682 83.3337 11.1102 83.3337H88.888C90.3614 83.3337 91.7745 82.7483 92.8164 81.7065C93.8583 80.6646 94.4436 79.2515 94.4436 77.7781V22.2225C94.4436 20.7491 93.8583 19.336 92.8164 18.2942C91.7745 17.2523 90.3614 16.667 88.888 16.667ZM84.6102 77.7781H15.7214L35.1658 57.667L31.1658 53.8059L11.1102 74.5559V26.4448L45.638 60.8059C46.6789 61.8406 48.087 62.4214 49.5547 62.4214C51.0224 62.4214 52.4305 61.8406 53.4714 60.8059L88.888 25.5837V74.1948L68.4436 53.7503L64.5269 57.667L84.6102 77.7781ZM14.7491 22.2225H84.388L49.5547 56.8614L14.7491 22.2225Z" fill="#56AEFF"/>
</g>
<defs>
<clipPath id="clip0_24_711">
<rect width="100" height="100" fill="white"/>
</clipPath>
</defs>
</svg>
