<svg width="16" height="15" viewBox="0 0 16 15" fill="none" xmlns="http://www.w3.org/2000/svg">
<path d="M6.01383 7.05816C6.72195 6.35004 7.95695 6.35004 8.66508 7.05816L9.10695 7.50004L9.9907 6.61629L9.54883 6.17441C8.95946 5.58441 8.17445 5.25879 7.33945 5.25879C6.50445 5.25879 5.71945 5.58441 5.13008 6.17441L3.80383 7.50004C3.21901 8.08674 2.89063 8.88134 2.89062 9.70973C2.89063 10.5381 3.21901 11.3327 3.80383 11.9194C4.09375 12.2097 4.43818 12.4399 4.81734 12.5967C5.1965 12.7536 5.6029 12.8339 6.0132 12.8332C6.42362 12.834 6.83015 12.7537 7.20942 12.5969C7.5887 12.4401 7.93323 12.2099 8.2232 11.9194L8.66508 11.4775L7.78133 10.5938L7.33945 11.0357C6.98725 11.3863 6.5105 11.5831 6.01352 11.5831C5.51654 11.5831 5.03979 11.3863 4.68758 11.0357C4.33664 10.6836 4.13958 10.2068 4.13958 9.70973C4.13958 9.21264 4.33664 8.73583 4.68758 8.38379L6.01383 7.05816Z" fill="white"/>
<path d="M8.22453 3.08071L7.78266 3.52259L8.66641 4.40634L9.10828 3.96446C9.46049 3.61383 9.93724 3.41698 10.4342 3.41698C10.9312 3.41698 11.4079 3.61383 11.7602 3.96446C12.1111 4.31651 12.3082 4.79332 12.3082 5.2904C12.3082 5.78748 12.1111 6.26429 11.7602 6.61634L10.4339 7.94196C9.72578 8.65009 8.49078 8.65009 7.78266 7.94196L7.34078 7.50009L6.45703 8.38384L6.89891 8.82571C7.48828 9.41571 8.27328 9.74134 9.10828 9.74134C9.94328 9.74134 10.7283 9.41571 11.3177 8.82571L12.6439 7.50009C13.2287 6.91339 13.5571 6.11879 13.5571 5.2904C13.5571 4.46201 13.2287 3.66741 12.6439 3.08071C12.0574 2.49559 11.2627 2.16699 10.4342 2.16699C9.60573 2.16699 8.81107 2.49559 8.22453 3.08071Z" fill="white"/>
</svg>
