<svg width="37" height="37" viewBox="0 0 37 37" fill="none" xmlns="http://www.w3.org/2000/svg">
<mask id="mask0_30_856" style="mask-type:alpha" maskUnits="userSpaceOnUse" x="0" y="0" width="37" height="37">
<rect width="37" height="37" fill="#D9D9D9"/>
</mask>
<g mask="url(#mask0_30_856)">
<path d="M14.1 23.9522L18.4167 20.6356L22.6563 23.9522L21.0375 18.5824L25.3542 15.1079H20.1125L18.4167 9.73806L16.7208 15.1079H11.4792L15.7188 18.5824L14.1 23.9522ZM6.08333 30.2696C5.23542 30.2696 4.50955 29.9603 3.90573 29.3418C3.30191 28.7232 3 27.9796 3 27.1109V21.7806C3 21.4911 3.08993 21.241 3.26979 21.0304C3.44965 20.8198 3.6809 20.6882 3.96354 20.6356C4.58021 20.425 5.08767 20.0433 5.48594 19.4906C5.8842 18.9378 6.08333 18.3192 6.08333 17.6348C6.08333 16.9504 5.8842 16.3318 5.48594 15.7791C5.08767 15.2263 4.58021 14.8446 3.96354 14.634C3.6809 14.5814 3.44965 14.4498 3.26979 14.2392C3.08993 14.0286 3 13.7786 3 13.489V8.1587C3 7.29006 3.30191 6.54645 3.90573 5.92787C4.50955 5.30929 5.23542 5 6.08333 5H30.75C31.5979 5 32.3238 5.30929 32.9276 5.92787C33.5314 6.54645 33.8333 7.29006 33.8333 8.1587V13.489C33.8333 13.7786 33.7434 14.0286 33.5635 14.2392C33.3837 14.4498 33.1524 14.5814 32.8698 14.634C32.2531 14.8446 31.7457 15.2263 31.3474 15.7791C30.9491 16.3318 30.75 16.9504 30.75 17.6348C30.75 18.3192 30.9491 18.9378 31.3474 19.4906C31.7457 20.0433 32.2531 20.425 32.8698 20.6356C33.1524 20.6882 33.3837 20.8198 33.5635 21.0304C33.7434 21.241 33.8333 21.4911 33.8333 21.7806V27.1109C33.8333 27.9796 33.5314 28.7232 32.9276 29.3418C32.3238 29.9603 31.5979 30.2696 30.75 30.2696H6.08333ZM6.08333 27.1109H30.75V23.0836C29.7993 22.5045 29.0477 21.7345 28.4953 20.7738C27.9429 19.813 27.6667 18.7667 27.6667 17.6348C27.6667 16.5029 27.9429 15.4566 28.4953 14.4959C29.0477 13.5351 29.7993 12.7651 30.75 12.1861V8.1587H6.08333V12.1861C7.03403 12.7651 7.78559 13.5351 8.33802 14.4959C8.89045 15.4566 9.16667 16.5029 9.16667 17.6348C9.16667 18.7667 8.89045 19.813 8.33802 20.7738C7.78559 21.7345 7.03403 22.5045 6.08333 23.0836V27.1109Z" fill="#F9F7F7"/>
</g>
</svg>
