<svg xmlns="http://www.w3.org/2000/svg" viewBox="0 0 512 512"><path d="M70.368 6c-8.325.225-14.176 6.675-14.176 17.25v370.652c0 14.325 10.65 31.126 23.625 37.201l155.326 72.674c12.975 6.075 23.625-.749 23.625-15.074l.225-70.426.15-303.527c0-13.725-8.4-26.925-20.85-32.776L120.843 27h231.001c4.65 0 8.326 3.75 8.326 8.4V124h21.975V26.55c0-10.574-7.95-19.275-18.3-20.4C317.868 6.225 71.866 6 70.816 6H70.368zm293.476.15c11.925-.075 15.376-.075-2.324-.15.825 0 1.574.075 2.324.15zm13.7 139.246v54.71H298.87v35.755h78.673v54.776l78.266-72.62-78.266-72.62zm-167.6 122.373c.244 0 .487.02.75.057 7.65.525 14.326 10.051 15.3 21.977 1.05 12.825-4.725 23.775-12.9 24.525-8.175.675-15.75-9.226-16.8-22.05-1.05-12.826 4.725-23.777 12.9-24.452a5.23 5.23 0 0 1 .75-.057zM360.17 312v113.778h1.35c11.4 0 20.625-9.149 20.625-20.549V312H360.17z"/></svg>