<svg width="17" height="17" viewBox="0 0 17 17" fill="none" xmlns="http://www.w3.org/2000/svg">
<path fill-rule="evenodd" clip-rule="evenodd" d="M7.35103 2.70302C4.74067 2.70302 2.62455 4.82966 2.62455 7.45302C2.62455 10.0764 4.74067 12.203 7.35103 12.203C8.65636 12.203 9.83726 11.6719 10.6932 10.8118C11.5491 9.95162 12.0775 8.76484 12.0775 7.45302C12.0775 4.82966 9.9614 2.70302 7.35103 2.70302ZM1.57422 7.45302C1.57422 4.2467 4.16059 1.64746 7.35103 1.64746C10.5415 1.64746 13.1278 4.2467 13.1278 7.45302C13.1278 8.86593 12.6251 10.1616 11.7904 11.1681L15.0747 14.4687C15.2798 14.6748 15.2798 15.009 15.0747 15.2151C14.8696 15.4212 14.5371 15.4212 14.332 15.2151L11.0477 11.9144C10.0462 12.7533 8.75695 13.2586 7.35103 13.2586C4.16059 13.2586 1.57422 10.6593 1.57422 7.45302Z" fill="#5D6D79"/>
</svg>
