<svg width="20" height="20" viewBox="0 0 20 20" fill="none" xmlns="http://www.w3.org/2000/svg">
<mask id="mask0_53_679" style="mask-type:alpha" maskUnits="userSpaceOnUse" x="0" y="0" width="20" height="20">
<rect width="20" height="20" fill="#D9D9D9"/>
</mask>
<g mask="url(#mask0_53_679)">
<path d="M4.9987 18.3337C4.54036 18.3337 4.148 18.1705 3.82161 17.8441C3.49523 17.5177 3.33203 17.1253 3.33203 16.667V3.33366C3.33203 2.87533 3.49523 2.48296 3.82161 2.15658C4.148 1.83019 4.54036 1.66699 4.9987 1.66699H14.9987C15.457 1.66699 15.8494 1.83019 16.1758 2.15658C16.5022 2.48296 16.6654 2.87533 16.6654 3.33366V16.667C16.6654 17.1253 16.5022 17.5177 16.1758 17.8441C15.8494 18.1705 15.457 18.3337 14.9987 18.3337H4.9987ZM4.9987 16.667H14.9987V3.33366H4.9987V16.667ZM5.83203 15.0003H14.1654L11.2904 11.2503L9.3737 13.7503L8.08203 12.0837L5.83203 15.0003Z" fill="#1C1B1F" fill-opacity="0.5"/>
</g>
</svg>
