<svg width="12" height="12" viewBox="0 0 12 12" fill="none" xmlns="http://www.w3.org/2000/svg">
<g id="heroicons-solid/globe-asia-australia">
<g id="Union">
<path d="M7.87489 4.125C8.08199 4.125 8.24989 4.29289 8.24989 4.5C8.24989 5.06006 8.00386 5.56313 7.61522 5.90615C7.45994 6.0432 7.22297 6.02843 7.08592 5.87315C6.94887 5.71787 6.96364 5.4809 7.11892 5.34385C7.3531 5.13716 7.49989 4.83595 7.49989 4.5C7.49989 4.29289 7.66778 4.125 7.87489 4.125Z" fill="#5D6D79" fill-opacity="0.7"/>
<path fill-rule="evenodd" clip-rule="evenodd" d="M6 1.125C3.30761 1.125 1.125 3.30761 1.125 6C1.125 8.69239 3.30761 10.875 6 10.875C8.69239 10.875 10.875 8.69239 10.875 6C10.875 3.30761 8.69239 1.125 6 1.125ZM2.28745 7.8001C2.95598 9.17633 4.3672 10.125 6 10.125C6.33113 10.125 6.65314 10.086 6.9617 10.0123C6.81822 9.63015 6.45218 9.375 6.04141 9.375C5.80112 9.375 5.59605 9.20128 5.55654 8.96425L5.52006 8.74537C5.47303 8.46317 5.6453 8.19063 5.92038 8.11203L6.41475 7.97079C6.62837 7.90975 6.80657 7.76186 6.90593 7.56314L6.92418 7.52664C7.04726 7.28049 7.29884 7.125 7.57404 7.125C7.76674 7.125 7.95155 7.20155 8.08781 7.33781L8.25 7.5H8.56415C8.98344 7.5 9.362 7.73232 9.55541 8.09287C9.91735 7.47932 10.125 6.76391 10.125 6C10.125 3.8509 8.48152 2.08566 6.38282 1.89253C6.40498 2.02401 6.4734 2.1445 6.5774 2.23116L7.1117 2.67642C7.33254 2.86045 7.37908 3.18138 7.21963 3.42056L6.96411 3.80383C6.82534 4.01199 6.62115 4.16795 6.38381 4.24706L6.31269 4.27077C5.96635 4.38622 5.82459 4.79939 6.0271 5.10315C6.21183 5.38025 6.1119 5.75655 5.81403 5.90549L4.5 6.5625L4.7117 7.09174C4.804 7.3225 4.70401 7.58549 4.48172 7.69664C4.27515 7.79993 4.02428 7.7407 3.88571 7.55594L3.54609 7.10312C3.2952 6.76859 2.77997 6.81505 2.59297 7.18906L2.28745 7.8001Z" fill="#5D6D79" fill-opacity="0.7"/>
</g>
</g>
</svg>
