<svg width="37" height="37" viewBox="0 0 37 37" fill="none" xmlns="http://www.w3.org/2000/svg">
<path d="M28.2055 8.7555C27.6516 9.3094 27.6054 10.171 28.0978 10.7865C30.3288 13.5867 31.4981 17.4179 30.4519 21.4336C29.2364 26.1264 25.5591 29.6344 20.8971 30.573C13.0502 32.127 6.17262 26.0649 6.17262 18.4795C6.17262 12.202 10.8654 7.03226 16.9429 6.27834V9.38633C12.127 10.2018 8.58823 14.7099 9.35754 19.895C9.9576 23.9108 13.2964 27.1419 17.3275 27.6342C22.9281 28.3266 27.7131 23.957 27.7131 18.4795C27.7131 16.5562 27.1285 14.7868 26.1284 13.3098C25.6053 12.5405 24.4821 12.4943 23.8205 13.1405L23.8051 13.1559C23.282 13.679 23.2358 14.4945 23.6358 15.11C24.559 16.5255 24.9283 18.341 24.3897 20.2181C23.7897 22.326 22.0203 24.0031 19.8662 24.4801C15.8659 25.3571 12.3271 22.3414 12.3271 18.4795C12.3271 15.6177 14.2965 13.2329 16.9429 12.5405V15.8331C16.0197 16.3716 15.4043 17.3409 15.4043 18.4795C15.4043 20.172 16.789 21.5567 18.4815 21.5567C20.174 21.5567 21.5587 20.172 21.5587 18.4795C21.5587 17.3409 20.9433 16.3562 20.0201 15.8331V4.18583C20.0201 3.58577 19.5277 3.09342 18.9277 3.09342C10.6807 2.78569 3.57237 9.34017 3.12617 17.5563C2.57227 27.6342 11.45 35.7427 21.6049 33.5579C27.5747 32.2808 32.1905 27.7112 33.5291 21.7567C34.6215 16.8947 33.2214 12.2789 30.498 8.87859C29.9287 8.15544 28.8517 8.10928 28.2055 8.7555Z" fill="#F9F7F7"/>
<mask id="mask0_174_1883" style="mask-type:luminance" maskUnits="userSpaceOnUse" x="3" y="3" width="31" height="31">
<path d="M28.2055 8.7555C27.6516 9.3094 27.6054 10.171 28.0978 10.7865C30.3288 13.5867 31.4981 17.4179 30.4519 21.4336C29.2364 26.1264 25.5591 29.6344 20.8971 30.573C13.0502 32.127 6.17262 26.0649 6.17262 18.4795C6.17262 12.202 10.8654 7.03226 16.9429 6.27834V9.38633C12.127 10.2018 8.58823 14.7099 9.35754 19.895C9.9576 23.9108 13.2964 27.1419 17.3275 27.6342C22.9281 28.3266 27.7131 23.957 27.7131 18.4795C27.7131 16.5562 27.1285 14.7868 26.1284 13.3098C25.6053 12.5405 24.4821 12.4943 23.8205 13.1405L23.8051 13.1559C23.282 13.679 23.2358 14.4945 23.6358 15.11C24.559 16.5255 24.9283 18.341 24.3897 20.2181C23.7897 22.326 22.0203 24.0031 19.8662 24.4801C15.8659 25.3571 12.3271 22.3414 12.3271 18.4795C12.3271 15.6177 14.2965 13.2329 16.9429 12.5405V15.8331C16.0197 16.3716 15.4043 17.3409 15.4043 18.4795C15.4043 20.172 16.789 21.5567 18.4815 21.5567C20.174 21.5567 21.5587 20.172 21.5587 18.4795C21.5587 17.3409 20.9433 16.3562 20.0201 15.8331V4.18583C20.0201 3.58577 19.5277 3.09342 18.9277 3.09342C10.6807 2.78569 3.57237 9.34017 3.12617 17.5563C2.57227 27.6342 11.45 35.7427 21.6049 33.5579C27.5747 32.2808 32.1905 27.7112 33.5291 21.7567C34.6215 16.8947 33.2214 12.2789 30.498 8.87859C29.9287 8.15544 28.8517 8.10928 28.2055 8.7555Z" fill="white"/>
</mask>
<g mask="url(#mask0_174_1883)">
</g>
</svg>
