<svg width="21" height="12" viewBox="0 0 21 12" fill="none" xmlns="http://www.w3.org/2000/svg">
<path id="Vector" d="M10.5 0C9.68777 0 8.90882 0.316071 8.33449 0.87868C7.76016 1.44129 7.4375 2.20435 7.4375 3C7.4375 3.79565 7.76016 4.55871 8.33449 5.12132C8.90882 5.68393 9.68777 6 10.5 6C11.3122 6 12.0912 5.68393 12.6655 5.12132C13.2398 4.55871 13.5625 3.79565 13.5625 3C13.5625 2.20435 13.2398 1.44129 12.6655 0.87868C12.0912 0.316071 11.3122 0 10.5 0ZM10.5 1.71429C10.8481 1.71429 11.1819 1.84974 11.4281 2.09086C11.6742 2.33198 11.8125 2.65901 11.8125 3C11.8125 3.34099 11.6742 3.66802 11.4281 3.90914C11.1819 4.15026 10.8481 4.28571 10.5 4.28571C10.1519 4.28571 9.81806 4.15026 9.57192 3.90914C9.32578 3.66802 9.1875 3.34099 9.1875 3C9.1875 2.65901 9.32578 2.33198 9.57192 2.09086C9.81806 1.84974 10.1519 1.71429 10.5 1.71429ZM4.8125 2.57143C4.23234 2.57143 3.67594 2.79719 3.2657 3.19906C2.85547 3.60092 2.625 4.14596 2.625 4.71429C2.625 5.52 3.08875 6.21429 3.75375 6.58286C4.06875 6.75429 4.4275 6.85714 4.8125 6.85714C5.1975 6.85714 5.55625 6.75429 5.87125 6.58286C6.195 6.40286 6.46625 6.14571 6.6675 5.83714C6.03005 5.02335 5.68547 4.02576 5.6875 3V2.76C5.425 2.64 5.1275 2.57143 4.8125 2.57143ZM16.1875 2.57143C15.8725 2.57143 15.575 2.64 15.3125 2.76V3C15.3125 4.02857 14.9712 5.02286 14.3325 5.83714C14.4375 6 14.5512 6.12857 14.6825 6.25714C15.086 6.64037 15.6255 6.85544 16.1875 6.85714C16.5725 6.85714 16.9312 6.75429 17.2462 6.58286C17.9112 6.21429 18.375 5.52 18.375 4.71429C18.375 4.14596 18.1445 3.60092 17.7343 3.19906C17.3241 2.79719 16.7677 2.57143 16.1875 2.57143ZM10.5 7.71429C8.4525 7.71429 4.375 8.71714 4.375 10.7143V12H16.625V10.7143C16.625 8.71714 12.5475 7.71429 10.5 7.71429ZM4.12125 8.18571C2.4325 8.38286 0 9.22286 0 10.7143V12H2.625V10.3457C2.625 9.48 3.22875 8.76 4.12125 8.18571ZM16.8787 8.18571C17.7712 8.76 18.375 9.48 18.375 10.3457V12H21V10.7143C21 9.22286 18.5675 8.38286 16.8787 8.18571ZM10.5 9.42857C11.8387 9.42857 13.335 9.85714 14.2012 10.2857H6.79875C7.665 9.85714 9.16125 9.42857 10.5 9.42857Z" fill="#F9F7F7"/>
</svg>
