<svg width="25" height="25" viewBox="0 0 25 25" fill="none" xmlns="http://www.w3.org/2000/svg">
<g id="heroicons-outline/chat-bubble-oval-left">
<path id="Union" d="M12.5 21.0938C17.6777 21.0938 21.875 17.2462 21.875 12.5C21.875 7.7538 17.6777 3.90625 12.5 3.90625C7.32233 3.90625 3.125 7.7538 3.125 12.5C3.125 14.7055 4.03131 16.7169 5.52116 18.2384C5.95579 18.6822 6.26241 19.2747 6.11349 19.8779C5.93798 20.5886 5.60025 21.2356 5.14145 21.7771C5.30396 21.8061 5.46875 21.8289 5.63507 21.8451C5.83725 21.8649 6.04248 21.875 6.25 21.875C7.58542 21.875 8.82308 21.4561 9.83872 20.7426C10.6824 20.9711 11.5756 21.0938 12.5 21.0938Z" stroke="#5D6D79" stroke-opacity="0.8" stroke-width="2" stroke-linecap="round" stroke-linejoin="round"/>
</g>
</svg>
