<svg width="25" height="25" viewBox="0 0 25 25" fill="none" xmlns="http://www.w3.org/2000/svg">
<path d="M12.1302 21.7819L12.1234 21.7783L12.0998 21.7655C12.0797 21.7546 12.0509 21.7388 12.0141 21.7183C11.9405 21.6772 11.8346 21.6171 11.701 21.5385C11.4339 21.3813 11.0554 21.1499 10.6027 20.8489C9.69869 20.248 8.49085 19.3647 7.27979 18.2357C4.88314 16.0016 2.34375 12.6824 2.34375 8.59375C2.34375 5.54369 4.91 3.125 8.00781 3.125C9.82956 3.125 11.4608 3.95738 12.5 5.26208C13.5393 3.95738 15.1704 3.125 16.9922 3.125C20.09 3.125 22.6562 5.54369 22.6562 8.59375C22.6562 12.6824 20.1169 16.0016 17.7202 18.2357C16.5091 19.3647 15.3013 20.248 14.3973 20.8489C13.9446 21.1499 13.5661 21.3813 13.299 21.5385C13.1654 21.6171 13.0595 21.6772 12.9859 21.7183C12.9491 21.7388 12.9203 21.7546 12.9002 21.7655L12.8766 21.7783L12.8698 21.7819L12.8669 21.7835C12.6378 21.9051 12.3622 21.9051 12.1331 21.7835L12.1302 21.7819Z" fill="#FB3958"/>
</svg>
