<svg width="15" height="15" viewBox="0 0 15 15" fill="none" xmlns="http://www.w3.org/2000/svg">
<g id="group">
<mask id="mask0_69_3828" style="mask-type:alpha" maskUnits="userSpaceOnUse" x="0" y="0" width="15" height="15">
<rect id="Bounding box" width="15" height="15" fill="#D9D9D9"/>
</mask>
<g mask="url(#mask0_69_3828)">
<path id="group_2" d="M0.625 11.875V10.2344C0.625 9.90234 0.710449 9.59717 0.881348 9.31885C1.05225 9.04053 1.2793 8.82812 1.5625 8.68164C2.16797 8.37891 2.7832 8.15186 3.4082 8.00049C4.0332 7.84912 4.66797 7.77344 5.3125 7.77344C5.95703 7.77344 6.5918 7.84912 7.2168 8.00049C7.8418 8.15186 8.45703 8.37891 9.0625 8.68164C9.3457 8.82812 9.57275 9.04053 9.74365 9.31885C9.91455 9.59717 10 9.90234 10 10.2344V11.875H0.625ZM11.1719 11.875V10.1172C11.1719 9.6875 11.0522 9.2749 10.813 8.87939C10.5737 8.48389 10.2344 8.14453 9.79492 7.86133C10.293 7.91992 10.7617 8.02002 11.2012 8.16162C11.6406 8.30322 12.0508 8.47656 12.4316 8.68164C12.7832 8.87695 13.0518 9.09424 13.2373 9.3335C13.4229 9.57275 13.5156 9.83398 13.5156 10.1172V11.875H11.1719ZM5.3125 7.1875C4.66797 7.1875 4.11621 6.95801 3.65723 6.49902C3.19824 6.04004 2.96875 5.48828 2.96875 4.84375C2.96875 4.19922 3.19824 3.64746 3.65723 3.18848C4.11621 2.72949 4.66797 2.5 5.3125 2.5C5.95703 2.5 6.50879 2.72949 6.96777 3.18848C7.42676 3.64746 7.65625 4.19922 7.65625 4.84375C7.65625 5.48828 7.42676 6.04004 6.96777 6.49902C6.50879 6.95801 5.95703 7.1875 5.3125 7.1875ZM11.1719 4.84375C11.1719 5.48828 10.9424 6.04004 10.4834 6.49902C10.0244 6.95801 9.47266 7.1875 8.82812 7.1875C8.7207 7.1875 8.58398 7.17529 8.41797 7.15088C8.25195 7.12646 8.11523 7.09961 8.00781 7.07031C8.27148 6.75781 8.47412 6.41113 8.61572 6.03027C8.75732 5.64941 8.82812 5.25391 8.82812 4.84375C8.82812 4.43359 8.75732 4.03809 8.61572 3.65723C8.47412 3.27637 8.27148 2.92969 8.00781 2.61719C8.14453 2.56836 8.28125 2.53662 8.41797 2.52197C8.55469 2.50732 8.69141 2.5 8.82812 2.5C9.47266 2.5 10.0244 2.72949 10.4834 3.18848C10.9424 3.64746 11.1719 4.19922 11.1719 4.84375Z" fill="white"/>
</g>
</g>
</svg>
