<svg width="15" height="15" viewBox="0 0 15 15" fill="none" xmlns="http://www.w3.org/2000/svg">
<g id="group">
<mask id="mask0_53_537" style="mask-type:alpha" maskUnits="userSpaceOnUse" x="0" y="0" width="15" height="15">
<rect id="Bounding box" width="15" height="15" fill="#D9D9D9"/>
</mask>
<g mask="url(#mask0_53_537)">
<path id="group_2" d="M0.625 12.5V10.75C0.625 10.3958 0.716146 10.0703 0.898438 9.77344C1.08073 9.47656 1.32292 9.25 1.625 9.09375C2.27083 8.77083 2.92708 8.52865 3.59375 8.36719C4.26042 8.20573 4.9375 8.125 5.625 8.125C6.3125 8.125 6.98958 8.20573 7.65625 8.36719C8.32292 8.52865 8.97917 8.77083 9.625 9.09375C9.92708 9.25 10.1693 9.47656 10.3516 9.77344C10.5339 10.0703 10.625 10.3958 10.625 10.75V12.5H0.625ZM11.875 12.5V10.625C11.875 10.1667 11.7474 9.72656 11.4922 9.30469C11.237 8.88281 10.875 8.52083 10.4062 8.21875C10.9375 8.28125 11.4375 8.38802 11.9063 8.53906C12.375 8.6901 12.8125 8.875 13.2188 9.09375C13.5938 9.30208 13.8802 9.53385 14.0781 9.78906C14.276 10.0443 14.375 10.3229 14.375 10.625V12.5H11.875ZM5.625 7.5C4.9375 7.5 4.34896 7.25521 3.85938 6.76562C3.36979 6.27604 3.125 5.6875 3.125 5C3.125 4.3125 3.36979 3.72396 3.85938 3.23438C4.34896 2.74479 4.9375 2.5 5.625 2.5C6.3125 2.5 6.90104 2.74479 7.39062 3.23438C7.88021 3.72396 8.125 4.3125 8.125 5C8.125 5.6875 7.88021 6.27604 7.39062 6.76562C6.90104 7.25521 6.3125 7.5 5.625 7.5ZM11.875 5C11.875 5.6875 11.6302 6.27604 11.1406 6.76562C10.651 7.25521 10.0625 7.5 9.375 7.5C9.26042 7.5 9.11458 7.48698 8.9375 7.46094C8.76042 7.4349 8.61458 7.40625 8.5 7.375C8.78125 7.04167 8.9974 6.67188 9.14844 6.26562C9.29948 5.85938 9.375 5.4375 9.375 5C9.375 4.5625 9.29948 4.14062 9.14844 3.73438C8.9974 3.32812 8.78125 2.95833 8.5 2.625C8.64583 2.57292 8.79167 2.53906 8.9375 2.52344C9.08333 2.50781 9.22917 2.5 9.375 2.5C10.0625 2.5 10.651 2.74479 11.1406 3.23438C11.6302 3.72396 11.875 4.3125 11.875 5ZM1.875 11.25H9.375V10.75C9.375 10.6354 9.34635 10.5312 9.28906 10.4375C9.23177 10.3438 9.15625 10.2708 9.0625 10.2188C8.5 9.9375 7.93229 9.72656 7.35938 9.58594C6.78646 9.44531 6.20833 9.375 5.625 9.375C5.04167 9.375 4.46354 9.44531 3.89062 9.58594C3.31771 9.72656 2.75 9.9375 2.1875 10.2188C2.09375 10.2708 2.01823 10.3438 1.96094 10.4375C1.90365 10.5312 1.875 10.6354 1.875 10.75V11.25ZM5.625 6.25C5.96875 6.25 6.26302 6.1276 6.50781 5.88281C6.7526 5.63802 6.875 5.34375 6.875 5C6.875 4.65625 6.7526 4.36198 6.50781 4.11719C6.26302 3.8724 5.96875 3.75 5.625 3.75C5.28125 3.75 4.98698 3.8724 4.74219 4.11719C4.4974 4.36198 4.375 4.65625 4.375 5C4.375 5.34375 4.4974 5.63802 4.74219 5.88281C4.98698 6.1276 5.28125 6.25 5.625 6.25Z" fill="#1C1B1F" fill-opacity="0.5"/>
</g>
</g>
</svg>
