<svg width="16" height="16" viewBox="0 0 16 16" fill="none" xmlns="http://www.w3.org/2000/svg">
<path fill-rule="evenodd" clip-rule="evenodd" d="M0 8C0 3.58172 3.58172 0 8 0C12.4183 0 16 3.58172 16 8C16 12.4183 12.4183 16 8 16C3.58172 16 0 12.4183 0 8ZM9.33552 4.78628C8.60625 4.14816 7.39412 4.14816 6.66485 4.78628C6.40907 5.01008 6.0203 4.98417 5.79649 4.72839C5.57269 4.47261 5.59861 4.08383 5.85438 3.86003C7.04769 2.81589 8.95268 2.81589 10.146 3.86003C11.3875 4.94634 11.3875 6.74597 10.146 7.83228C9.9354 8.01654 9.70346 8.16748 9.45891 8.28583C8.90402 8.55438 8.61557 8.92076 8.61557 9.23077V9.84615C8.61557 10.186 8.34005 10.4615 8.00019 10.4615C7.66032 10.4615 7.3848 10.186 7.3848 9.84615V9.23077C7.3848 8.18131 8.25395 7.50166 8.92276 7.17798C9.07262 7.10546 9.21149 7.01456 9.33552 6.90603C10.0166 6.31008 10.0166 5.38223 9.33552 4.78628ZM8 12.9231C8.33987 12.9231 8.61539 12.6476 8.61539 12.3077C8.61539 11.9678 8.33987 11.6923 8 11.6923C7.66013 11.6923 7.38462 11.9678 7.38462 12.3077C7.38462 12.6476 7.66013 12.9231 8 12.9231Z" fill="#525052"/>
</svg>
