<svg width="16" height="15" viewBox="0 0 16 15" fill="none" xmlns="http://www.w3.org/2000/svg">
<g id="heroicons-solid/home">
<g id="Union">
<path d="M7.17833 2.40097C7.36167 2.21791 7.65893 2.21791 7.84228 2.40097L13.2816 7.8318C13.465 8.01486 13.7622 8.01486 13.9456 7.8318C14.1289 7.64874 14.1289 7.35195 13.9456 7.16889L8.50623 1.73805C7.9562 1.18888 7.06441 1.18888 6.51437 1.73805L1.07501 7.16889C0.891664 7.35195 0.891664 7.64874 1.07501 7.8318C1.25835 8.01486 1.55562 8.01486 1.73896 7.8318L7.17833 2.40097Z" fill="#F6F6F6"/>
<path d="M7.5103 3.39534L12.6177 8.49472C12.6363 8.51329 12.6553 8.53124 12.6746 8.54856V12.4222C12.6746 13.0694 12.1492 13.5941 11.5009 13.5941H9.38825C9.12896 13.5941 8.91876 13.3842 8.91876 13.1253V10.3128C8.91876 10.054 8.70856 9.8441 8.44927 9.8441H6.57133C6.31204 9.8441 6.10184 10.054 6.10184 10.3128V13.1253C6.10184 13.3842 5.89165 13.5941 5.63236 13.5941H3.51967C2.87145 13.5941 2.34596 13.0694 2.34596 12.4222V8.54856C2.36532 8.53124 2.38431 8.51329 2.40292 8.49472L7.5103 3.39534Z" fill="#F6F6F6"/>
</g>
</g>
</svg>
