<svg width="13" height="16" viewBox="0 0 13 16" fill="none" xmlns="http://www.w3.org/2000/svg">
<path d="M0.461161 0C0.19034 0.00720001 0 0.2136 0 0.552001V12.4129C0 12.8713 0.346457 13.4089 0.768548 13.6033L5.82148 15.9289C6.24357 16.1233 6.59003 15.9049 6.59003 15.4465L6.59735 13.1929L6.60223 3.48001C6.60223 3.04081 6.32897 2.6184 5.92395 2.43117L2.10317 0.672001H9.6179C9.76917 0.672001 9.88875 0.792001 9.88875 0.940802V3.77601H10.6036V0.657601C10.6036 0.319233 10.345 0.0408001 10.0083 0.00480001C8.51262 0.00720002 0.509893 0 0.475736 0H0.461161ZM10.0083 0.00480001C10.3962 0.00240001 10.5085 0.0024 9.93267 0C9.95951 0 9.98387 0.00240001 10.0083 0.00480001ZM10.4539 4.46068V6.2114H7.89459V7.35557H10.4539V9.1084L13 6.78456L10.4539 4.46071L10.4539 4.46068ZM5.00173 8.37662C5.00967 8.37662 5.01757 8.37726 5.02613 8.37845C5.27499 8.39525 5.49217 8.70008 5.52385 9.08171C5.55801 9.49211 5.37014 9.84251 5.1042 9.86651C4.83826 9.88811 4.59184 9.57128 4.55768 9.16091C4.52352 8.75048 4.71139 8.40005 4.97733 8.37845C4.98541 8.37726 4.99356 8.37665 5.00173 8.37662ZM9.88875 9.79202V13.4329H9.93267C10.3035 13.4329 10.6036 13.1402 10.6036 12.7754V9.79202H9.88875Z" fill="#525052"/>
</svg>
