<svg width="14" height="14" viewBox="0 0 14 14" fill="none" xmlns="http://www.w3.org/2000/svg">
<path d="M6.82451 1.6362C6.93619 1.58741 7.06316 1.58741 7.17484 1.6362C9.34415 2.58402 11.4001 3.74267 13.3169 5.08619C13.4556 5.18342 13.5257 5.35199 13.4969 5.51891C13.468 5.68583 13.3454 5.82111 13.1822 5.86618C12.7826 5.97646 12.3865 6.09524 11.994 6.22182C10.4009 6.73562 8.86733 7.38209 7.40631 8.14824L7.4044 8.14924C7.33815 8.18398 7.27206 8.21897 7.20612 8.25421C7.07729 8.32304 6.9226 8.32304 6.79377 8.25421C6.72719 8.21863 6.66046 8.18331 6.59358 8.14824C5.87115 7.7694 5.13097 7.41982 4.37463 7.10108V6.97059C4.37463 6.89397 4.41396 6.82598 4.47481 6.78912C5.3528 6.2572 6.25844 5.76642 7.18906 5.31941C7.40686 5.2148 7.49862 4.95342 7.394 4.73562C7.28938 4.51782 7.02801 4.42606 6.81021 4.53068C5.85398 4.98999 4.92347 5.49425 4.02142 6.04074C3.75695 6.20097 3.57916 6.4632 3.52067 6.75699C3.02197 6.56515 2.51671 6.38647 2.0053 6.22155C1.61282 6.09497 1.21672 5.97645 0.817201 5.86617C0.653915 5.8211 0.531319 5.68582 0.50249 5.5189C0.473662 5.35198 0.543781 5.18342 0.682491 5.08619C2.59923 3.74266 4.6552 2.58402 6.82451 1.6362Z" fill="white"/>
<path d="M7.61847 9.02595C9.04115 8.2658 10.5359 7.62318 12.0897 7.11097C12.168 7.93627 12.218 8.76978 12.2387 9.61049C12.2432 9.79086 12.1364 9.95547 11.9699 10.025C10.3067 10.7194 8.72477 11.5696 7.24226 12.5576C7.09534 12.6555 6.90396 12.6555 6.75703 12.5576C5.27453 11.5696 3.69256 10.7194 2.0294 10.025C1.86289 9.95547 1.75614 9.79086 1.76059 9.61049C1.7813 8.76971 1.83131 7.93615 1.90963 7.11078C2.44688 7.28786 2.97706 7.48054 3.49963 7.68828V8.42935C3.2381 8.58064 3.06213 8.86341 3.06213 9.18729C3.06213 9.47622 3.20218 9.73245 3.4181 9.89179C3.36588 10.1138 3.2886 10.3311 3.18625 10.5391C3.45032 10.6638 3.71213 10.7924 3.97161 10.925C4.11939 10.6244 4.22654 10.309 4.29305 9.98687C4.59892 9.85051 4.81213 9.5438 4.81213 9.18729C4.81213 8.86341 4.63617 8.58064 4.37463 8.42935V8.05323C5.05795 8.35179 5.72729 8.67645 6.38141 9.02595C6.76791 9.23246 7.23197 9.23246 7.61847 9.02595Z" fill="white"/>
<path d="M2.6026 11.3528C2.84709 11.1083 3.04173 10.8329 3.18625 10.5391C3.45032 10.6638 3.71213 10.7924 3.97161 10.925C3.78579 11.3029 3.53559 11.6572 3.22132 11.9715C3.05046 12.1424 2.77345 12.1424 2.6026 11.9715C2.43174 11.8007 2.43174 11.5236 2.6026 11.3528Z" fill="white"/>
</svg>
