<svg width="20" height="20" viewBox="0 0 20 20" fill="none" xmlns="http://www.w3.org/2000/svg">
<path fill-rule="evenodd" clip-rule="evenodd" d="M9.23298 1.875C8.46917 1.875 7.81731 2.42721 7.69174 3.18063L7.54286 4.07394C7.52606 4.1747 7.44758 4.2915 7.29566 4.36456C7.00895 4.50244 6.73446 4.6615 6.47423 4.83967C6.3355 4.93466 6.19523 4.94433 6.09948 4.90846L5.25016 4.59028C4.5349 4.32231 3.73074 4.61074 3.34883 5.27222L2.58052 6.60298C2.19861 7.26446 2.35091 8.10509 2.9406 8.59055L3.64104 9.16717C3.71989 9.23209 3.78165 9.35819 3.76907 9.5256C3.75729 9.6823 3.7513 9.84051 3.7513 10C3.7513 10.1595 3.75729 10.3178 3.76908 10.4746C3.78167 10.642 3.71991 10.7681 3.64105 10.833L2.9406 11.4097C2.35091 11.8951 2.19861 12.7357 2.58052 13.3972L3.34883 14.728C3.73074 15.3895 4.5349 15.6779 5.25016 15.4099L6.09967 15.0917C6.19541 15.0558 6.33568 15.0655 6.47441 15.1605C6.73459 15.3386 7.00901 15.4976 7.29566 15.6354C7.44758 15.7085 7.52606 15.8253 7.54286 15.9261L7.69174 16.8194C7.81731 17.5728 8.46917 18.125 9.23298 18.125H10.7696C11.5334 18.125 12.1853 17.5728 12.3109 16.8194L12.4597 15.9261C12.4765 15.8253 12.555 15.7085 12.7069 15.6354C12.9937 15.4976 13.2681 15.3385 13.5284 15.1603C13.6671 15.0653 13.8074 15.0557 13.9031 15.0915L14.7524 15.4097C15.4677 15.6777 16.2719 15.3893 16.6538 14.7278L17.4221 13.397C17.804 12.7355 17.6517 11.8949 17.062 11.4094L16.3616 10.8328C16.2827 10.7679 16.221 10.6418 16.2335 10.4744C16.2453 10.3177 16.2513 10.1595 16.2513 10C16.2513 9.84045 16.2453 9.68218 16.2335 9.52543C16.2209 9.358 16.2827 9.2319 16.3615 9.16698L17.062 8.59035C17.6517 8.10489 17.804 7.26426 17.4221 6.60278L16.6538 5.27202C16.2719 4.61054 15.4677 4.32211 14.7524 4.59008L13.9029 4.90833C13.8072 4.9442 13.6669 4.93453 13.5282 4.83955C13.268 4.66142 12.9936 4.5024 12.7069 4.36456C12.555 4.2915 12.4765 4.1747 12.4597 4.07394L12.3109 3.18063C12.1853 2.42721 11.5334 1.875 10.7696 1.875H9.23298ZM10.0014 13.125C11.7273 13.125 13.1264 11.7259 13.1264 10C13.1264 8.27411 11.7273 6.875 10.0014 6.875C8.27551 6.875 6.8764 8.27411 6.8764 10C6.8764 11.7259 8.27551 13.125 10.0014 13.125Z" fill="#525052"/>
</svg>
